<?xml version="1.0" standalone="no"?><!DOCTYPE svg PUBLIC "-//W3C//DTD SVG 1.1//EN" "http://www.w3.org/Graphics/SVG/1.1/DTD/svg11.dtd"><svg t="1634039422006" class="icon" viewBox="0 0 1024 1024" version="1.1" xmlns="http://www.w3.org/2000/svg" p-id="4218" xmlns:xlink="http://www.w3.org/1999/xlink" width="200" height="200"><defs><style type="text/css"></style></defs><path d="M1024 810.667H0A580.267 580.267 0 0 1 94.293 551.68a477.867 477.867 0 0 1 156.16-150.613l17.494-9.814L181.76 245.76a21.76 21.76 0 0 1 7.253-29.867 21.333 21.333 0 0 1 29.44 7.68L307.2 372.907a538.453 538.453 0 0 1 206.507-38.4 520.533 520.533 0 0 1 202.666 38.4l88.32-149.334a21.333 21.333 0 0 1 29.867-7.253 21.76 21.76 0 0 1 6.827 29.867L755.2 392.107l21.333 11.946a485.547 485.547 0 0 1 154.88 154.454A617.813 617.813 0 0 1 1024 810.667zM704 619.52a42.667 42.667 0 0 0 42.667 42.667 42.667 42.667 0 0 0 42.666-42.667 42.667 42.667 0 0 0-42.666-42.667A42.667 42.667 0 0 0 704 619.52z m-469.333 0a42.667 42.667 0 0 0 42.666 42.667A42.667 42.667 0 0 0 320 619.52a42.667 42.667 0 0 0-42.667-42.667 42.667 42.667 0 0 0-42.666 42.667z" fill="#2c2c2c" p-id="4219"></path></svg>