<?xml version="1.0" standalone="no"?><!DOCTYPE svg PUBLIC "-//W3C//DTD SVG 1.1//EN" "http://www.w3.org/Graphics/SVG/1.1/DTD/svg11.dtd"><svg t="1635324316874" class="icon" viewBox="0 0 1024 1024" version="1.1" xmlns="http://www.w3.org/2000/svg" p-id="1624" xmlns:xlink="http://www.w3.org/1999/xlink" width="200" height="200"><defs><style type="text/css"></style></defs><path d="M340.8 409.6h56v56h-56zM622.4 409.6h56v56h-56zM502.4 691.2h-24v70.4h25.6c28.8 0 43.2-12.8 43.2-36.8 0-25.6-16-33.6-44.8-33.6z" fill="#2c2c2c" p-id="1625"></path><path d="M512 0C228.8 0 0 228.8 0 512s228.8 512 512 512 512-228.8 512-512S795.2 0 512 0z m-145.6 870.4l-16-54.4h-68.8l-14.4 54.4H224l68.8-212.8h49.6l68.8 212.8h-44.8z m140.8-75.2h-28.8v75.2h-43.2V657.6h70.4c48 0 83.2 16 83.2 67.2 0 48-36.8 70.4-81.6 70.4z m246.4 75.2l-54.4-96-27.2 35.2v59.2h-43.2V657.6H672v92.8l70.4-92.8h46.4l-65.6 83.2 76.8 129.6h-46.4zM512 579.2H176c1.6-112 59.2-211.2 144-270.4l-73.6-73.6c-11.2-11.2-11.2-28.8 0-38.4 11.2-9.6 28.8-11.2 38.4 0l84.8 84.8c38.4-27.2 88-36.8 142.4-36.8 54.4 0 104 11.2 142.4 36.8l84.8-84.8c9.6-11.2 28.8-9.6 38.4 0 11.2 9.6 11.2 28.8 0 38.4L704 307.2c84.8 59.2 142.4 158.4 144 270.4H512z" fill="#2c2c2c" p-id="1626"></path><path d="M316.8 689.6c-6.4 24-12.8 48-19.2 70.4l-6.4 24h51.2l-6.4-24c-6.4-22.4-12.8-46.4-19.2-70.4z" fill="#2c2c2c" p-id="1627"></path></svg>