<?xml version="1.0" standalone="no"?><!DOCTYPE svg PUBLIC "-//W3C//DTD SVG 1.1//EN" "http://www.w3.org/Graphics/SVG/1.1/DTD/svg11.dtd"><svg class="icon" width="200px" height="200.00px" viewBox="0 0 1024 1024" version="1.1" xmlns="http://www.w3.org/2000/svg"><path d="M960 595.84a747.84 747.84 0 0 0-113.92-32 497.92 497.92 0 0 0-6.4-69.12 485.12 485.12 0 0 0 99.2-53.44 48 48 0 1 0-56.32-77.76c-175.68 128-568.32 128-743.68 0a48 48 0 1 0-56.32 77.76 485.12 485.12 0 0 0 99.2 53.44 497.92 497.92 0 0 0-6.4 69.12 747.84 747.84 0 0 0-113.92 32A48 48 0 1 0 96 685.44a618.56 618.56 0 0 1 85.44-25.28 473.6 473.6 0 0 0 16.96 68.16 464.64 464.64 0 0 0-106.88 88.96 48 48 0 1 0 72.64 64 365.44 365.44 0 0 1 73.92-64A321.6 321.6 0 0 0 512 986.56a321.6 321.6 0 0 0 272.32-170.56 365.44 365.44 0 0 1 73.92 64 48 48 0 1 0 72.64-64 464.64 464.64 0 0 0-106.88-88.96 473.6 473.6 0 0 0 16.96-68.16 618.56 618.56 0 0 1 85.44 25.28A48 48 0 0 0 960 595.84zM309.76 152.32a243.52 243.52 0 0 0 57.28 56 357.44 357.44 0 0 0-113.6 108.8 758.4 758.4 0 0 0 517.44 0 357.44 357.44 0 0 0-113.6-108.8 243.84 243.84 0 0 0 57.28-56.32 60.16 60.16 0 1 0-53.12-40.32A179.84 179.84 0 0 1 576 176a270.4 270.4 0 0 0-128 0 179.84 179.84 0 0 1-84.8-64 60.16 60.16 0 1 0-53.44 40.32z" fill="#231F20" /></svg>