<?xml version="1.0" standalone="no"?><!DOCTYPE svg PUBLIC "-//W3C//DTD SVG 1.1//EN" "http://www.w3.org/Graphics/SVG/1.1/DTD/svg11.dtd"><svg t="1640316231023" class="icon" viewBox="0 0 1024 1024" version="1.1" xmlns="http://www.w3.org/2000/svg" p-id="1870" xmlns:xlink="http://www.w3.org/1999/xlink" width="200" height="200"><defs><style type="text/css"></style></defs><path d="M945.012898 16.445242 63.71386 16.445242c-62.949644 0-62.949644 63.933358-62.949644 62.949644l0 881.300045c0 62.949644 62.949644 62.949644 62.949644 62.949644l881.300045 0c0 0.982707 62.95065 0 62.95065-62.949644L1007.964555 79.394886C1006.979834 78.411172 1008.948269 16.445242 945.012898 16.445242M945.012898 960.694931 63.71386 960.694931 63.71386 79.394886l881.300045 0L945.013904 960.694931z" fill="#2c2c2c" p-id="1871"></path><path d="M189.614154 457.094761l125.900294 0 0 125.900294-125.900294 0 0-125.900294Z" fill="#2c2c2c" p-id="1872"></path><path d="M441.414742 457.094761l125.899287 0 0 125.900294-125.899287 0 0-125.900294Z" fill="#2c2c2c" p-id="1873"></path><path d="M693.213316 457.094761l125.900294 0 0 125.900294-125.900294 0 0-125.900294Z" fill="#2c2c2c" p-id="1874"></path></svg>