<?xml version="1.0" standalone="no"?><!DOCTYPE svg PUBLIC "-//W3C//DTD SVG 1.1//EN" "http://www.w3.org/Graphics/SVG/1.1/DTD/svg11.dtd"><svg t="1665843915004" class="icon" viewBox="0 0 1024 1024" version="1.1" xmlns="http://www.w3.org/2000/svg" p-id="861" xmlns:xlink="http://www.w3.org/1999/xlink" width="200" height="200"><path d="M639.487482 886.432559c2.911988 27.00789-6.687973 53.887781-26.431893 73.983699-19.74392 20.095918-47.807806 31.583872-77.247686 31.583872h-47.615806c-29.43988 0-57.503766-11.455953-77.247686-31.583872-19.74392-20.095918-29.343881-46.975809-26.431893-73.983699L407.808423 672.00143h208.383154l23.295905 214.431129zM831.9987 128.00364l-159.99935-95.99961-313.438727 31.359873A95.423612 95.423612 0 0 0 288.00091 32.00403H192.0013v191.99922h95.99961c27.999886 0 52.991785-12.19195 70.559713-31.359873L671.99935 224.00325l159.99935-95.99961z" fill="#2c2c2c" p-id="862"></path><path d="M848.478633 100.579751l-159.99935-95.99961A31.839871 31.839871 0 0 0 668.799363 0.164159l-298.878786 29.887879A127.839481 127.839481 0 0 0 288.00091 0.00416H192.0013a31.99987 31.99987 0 0 0-31.99987 31.99987v191.99922a31.99987 31.99987 0 0 0 31.99987 31.99987h95.99961c29.919878 0 59.00776-10.783956 81.919667-30.047878l73.087703 7.29597L412.832403 640.00156h-5.05598a31.99987 31.99987 0 0 0-31.80787 28.543884l-23.263906 214.431129a123.391499 123.391499 0 0 0 35.391856 99.839594C413.760399 1009.024061 450.240251 1024 488.224097 1024h47.551806c37.951846 0 74.431698-15.007939 100.159594-41.151833a123.391499 123.391499 0 0 0 35.359856-99.839594l-23.263906-214.463129a31.99987 31.99987 0 0 0-31.80787-28.543884h-5.08798l-29.663879-392.894404 87.359645 8.735965a31.99987 31.99987 0 0 0 19.64792-4.415982l159.99935-95.99961a31.99987 31.99987 0 0 0 0-54.847778zM587.487693 704.0013l20.159918 185.919245c1.887992 17.375929-4.479982 34.879858-17.439929 48.095804-13.695944 13.983943-33.535864 21.983911-54.399779 21.983911h-47.583806c-20.895915 0-40.735835-7.999968-54.431779-22.015911a59.615758 59.615758 0 0 1-17.439929-48.063804l20.159918-185.919245h150.975386z m-110.495551-63.99974l29.727879-400.382373 10.07996 1.023995 30.175877 399.358378h-69.983716zM664.63938 191.107384l-183.839253-18.367926c-0.415998-0.064-0.735997-0.319999-1.183995-0.319998-0.319999-0.064-0.639997 0.096-0.959997 0.095999l-116.895525-11.711952a31.839871 31.839871 0 0 0-26.783891 10.239958C322.56077 184.51541 305.856837 192.00338 288.00091 192.00338H224.00117V64.0039h63.99974c17.887927 0 34.55986 7.45597 46.975809 20.991915a31.99987 31.99987 0 0 0 26.783891 10.207958l302.87877-30.303877L769.822953 128.00364 664.63938 191.107384z" fill="#2c2c2c" p-id="863"></path></svg>