<?xml version="1.0" standalone="no"?><!DOCTYPE svg PUBLIC "-//W3C//DTD SVG 1.1//EN" "http://www.w3.org/Graphics/SVG/1.1/DTD/svg11.dtd"><svg t="1634039395061" class="icon" viewBox="0 0 1024 1024" version="1.1" xmlns="http://www.w3.org/2000/svg" p-id="3437" xmlns:xlink="http://www.w3.org/1999/xlink" width="200" height="200"><defs><style type="text/css"></style></defs><path d="M970.24 832.512L745.984 608.256c-10.24-10.24-26.112-10.24-36.352 0l-25.088 25.088-99.84-99.84 98.304-98.304c22.016 15.36 52.224 12.8 71.68-6.656l32.768-32.768c22.016-22.016 22.016-57.856 0-79.872L548.352 76.8c-22.016-22.016-57.856-22.016-79.872 0l-32.768 32.768c-20.992 20.992-22.016 53.76-3.584 75.776L167.936 450.56c-22.016-18.432-55.296-17.408-75.776 3.584L59.392 486.4c-22.016 22.016-22.016 57.856 0 79.872l239.104 239.104c22.016 22.016 57.856 22.016 79.872 0l32.768-32.768c19.456-19.456 21.504-49.664 6.656-71.68l131.072-131.072 99.84 99.84-17.92 17.92c-10.24 10.24-10.24 26.112 0 36.352L855.04 948.224c10.24 10.24 26.112 10.24 36.352 0l79.872-79.872c9.216-9.728 9.216-25.6-1.024-35.84z" fill="#2c2c2c" p-id="3438"></path></svg>