<?xml version="1.0" standalone="no"?><!DOCTYPE svg PUBLIC "-//W3C//DTD SVG 1.1//EN" "http://www.w3.org/Graphics/SVG/1.1/DTD/svg11.dtd"><svg t="1634041803982" class="icon" viewBox="0 0 1044 1024" version="1.1" xmlns="http://www.w3.org/2000/svg" p-id="2892" xmlns:xlink="http://www.w3.org/1999/xlink" width="203.90625" height="200"><defs><style type="text/css"></style></defs><path d="M956.071287 35.930339c12.829315 12.828347 13.033461 33.499411 0.610505 46.575443l-0.610505 0.626953-121.83882 121.817534c63.89018 87.480251 47.647455 218.163171-39.948899 305.758557l-103.650412 103.376604c-12.920261 12.885431-33.790634 13.011208-46.861829 0.282516l-51.078281-49.743103-20.196979 20.195044a33.375568 33.375568 0 0 1-8.007195 5.917352l54.448153 53.023963c13.340165 12.99476 13.465943 34.395334 0.276711 47.549736L512.163458 798.086439c-86.440167 86.441135-214.83974 103.396922-302.275485 42.43349L87.158067 963.22468c-13.036364 13.033461-34.172805 13.033461-47.210136 0-12.829315-12.828347-13.033461-33.498443-0.610505-46.574476l0.609538-0.628888 122.461902-122.437714c-62.505659-87.466706-45.925269-217.074711 41.126371-304.126351L307.187584 386.079679c12.919294-12.884463 33.789667-13.011208 46.860861-0.283483l47.550703 46.308407a33.423944 33.423944 0 0 1 4.107123-5.293302l0.611472-0.62792 21.817575-21.814672-49.251603-47.964802c-13.206647-12.865113-13.462073-33.96769-0.669524-47.152085l0.391846-0.396683L485.656314 202.07867c85.893519-85.893519 213.219144-103.180198 300.612319-43.580001L908.860183 35.930339c13.037331-13.033461 34.173772-13.033461 47.211104 0zM331.027276 456.578988l-80.299319 80.087431-2.103388 2.133382c-69.027711 70.952108-75.832279 174.506736-18.071338 232.267676 58.344356 58.343388 163.41412 50.811245 234.437825-20.214394l83.097386-82.887434L331.027276 456.579955z m144.937391-5.628064l-22.438723 22.436788a33.536177 33.536177 0 0 1-5.183972 4.242575l70.623151 68.775188a33.296232 33.296232 0 0 1 5.708368-8.160063l0.610505-0.625986 19.575831-19.574863-68.89516-67.093639z m291.298971-221.850389c-58.344356-58.345323-163.412185-50.814148-234.437824 20.211491l-83.097386 82.887434 217.060199 211.389564 80.324473-80.113554 2.079201-2.107259c69.027711-70.952108 75.832279-174.507703 18.071337-232.267676z" fill="#2c2c2c" p-id="2893"></path></svg>