<?xml version="1.0" standalone="no"?><!DOCTYPE svg PUBLIC "-//W3C//DTD SVG 1.1//EN" "http://www.w3.org/Graphics/SVG/1.1/DTD/svg11.dtd"><svg t="1634039399673" class="icon" viewBox="0 0 1024 1024" version="1.1" xmlns="http://www.w3.org/2000/svg" p-id="3698" xmlns:xlink="http://www.w3.org/1999/xlink" width="200" height="200"><defs><style type="text/css"></style></defs><path d="M873.678 500.246h-66.729V322.108c0-49.207-39.862-89.215-89.068-89.507H539.743v-66.874c0-61.473-49.791-111.264-111.263-111.264s-111.263 49.791-111.263 111.264V232.6H139.079c-23.655 0.146-46.14 9.637-62.786 26.429-16.646 16.791-25.845 39.424-25.699 63.078v169.377h66.29c66.437 0 120.317 53.88 120.317 120.316 0 66.437-53.88 120.316-120.316 120.316H50.01v169.377c0.292 49.06 40.008 88.777 89.069 88.923h169.085v-66.875c0-42.928 22.924-82.644 60.158-104.108 37.233-21.465 83.082-21.465 120.316 0 37.233 21.464 60.158 61.18 60.158 104.108v66.875H717.88c49.206-0.146 88.922-40.008 89.068-89.07V723.21h66.875c60.45-1.46 108.78-50.959 108.78-111.41-0.145-60.741-48.476-110.094-108.926-111.554z m0 0" fill="#2c2c2c" p-id="3699"></path></svg>