<?xml version="1.0" standalone="no"?><!DOCTYPE svg PUBLIC "-//W3C//DTD SVG 1.1//EN" "http://www.w3.org/Graphics/SVG/1.1/DTD/svg11.dtd"><svg t="1637915897388" class="icon" viewBox="0 0 1024 1024" version="1.1" xmlns="http://www.w3.org/2000/svg" p-id="1875" xmlns:xlink="http://www.w3.org/1999/xlink" width="200" height="200"><defs><style type="text/css"></style></defs><path d="M128 806.4l768 0 0 89.6-768 0 0-89.6ZM732.288 528l-176.4992 186.1376c-10.9504 11.2064-26.4128 18.4896-43.7888 18.4896s-32.832-7.2832-43.6032-18.6048L291.5264 528.1344c-9.2288-10.0224-15.1104-22.9696-15.1104-37.3248 0-30.816 26.3808-55.8016 58.8992-55.8016 0.4544 0 0.896 0.0576 1.344 0.0704l0-0.352 116.4352 0L453.0944 297.9392c0-30.8352 26.3872-55.8208 58.8992-55.8208 32.5312 0 58.9056 24.9792 58.9056 55.8208l0 136.7872 114.2848 0 0 0.448c1.1648-0.064 2.3104-0.1792 3.5008-0.1792 32.5248 0 58.8992 24.992 58.8992 55.8144C747.5904 505.1648 741.7024 518.1056 732.288 528zM416 128l192 0 0 324.8-192 0 0-324.8Z" fill="#2c2c2c" p-id="1876"></path></svg>