<?xml version="1.0" standalone="no"?><!DOCTYPE svg PUBLIC "-//W3C//DTD SVG 1.1//EN" "http://www.w3.org/Graphics/SVG/1.1/DTD/svg11.dtd"><svg t="1665844463476" class="icon" viewBox="0 0 1024 1024" version="1.1" xmlns="http://www.w3.org/2000/svg" p-id="1145" xmlns:xlink="http://www.w3.org/1999/xlink" width="200" height="200"><path d="M504.32 817.152c-180.736 0-294.912-83.456-358.4-153.6-61.952-68.608-89.6-134.656-89.6-148.48 0-19.968 44.544-89.6 89.6-140.8 67.584-76.288 184.32-167.424 354.304-167.424 167.936 0 284.16 88.576 351.744 163.328 48.64 53.248 94.208 123.392 94.208 144.896 0 14.336-31.232 92.16-102.912 165.888-87.04 89.088-204.288 136.192-338.944 136.192z m-318.976-299.008c15.36 31.232 34.816 59.904 58.368 85.504 66.56 73.728 154.624 111.104 260.608 111.104 98.816 0 181.76-33.28 245.76-98.304 28.16-28.672 51.712-61.952 68.608-98.816l1.536-2.56-1.536-2.56c-17.408-30.72-38.4-58.88-61.952-84.992-49.664-54.272-134.144-119.296-255.488-119.296-122.88 0-207.36 66.56-257.024 122.368-22.528 24.576-41.984 52.224-58.368 81.408" fill="#2C2C2C" p-id="1146"></path><path d="M573.952 596.48c0-28.16 23.04-51.2 51.2-51.2 17.92 0 34.304 9.216 43.52 24.576 10.24-23.552 15.872-49.152 16.384-74.752 0-102.912-83.456-186.368-186.368-186.368S312.32 392.192 312.32 495.104s83.456 186.368 186.368 186.368c39.424 0 78.336-12.8 110.08-36.352-20.992-7.168-34.816-26.624-34.816-48.64z m107.52-365.568s31.744-24.064 145.408 12.8c29.184 9.728 73.216 2.56 81.92-7.168 3.584 32.768-16.896 43.52-13.312 51.2 6.656 16.384 66.048 57.856 115.2 25.088 2.048 77.824-35.84 132.096-61.44 141.312-90.112-199.168-267.776-223.232-267.776-223.232z" fill="#2C2C2C" p-id="1147"></path></svg>