<?xml version="1.0" standalone="no"?><!DOCTYPE svg PUBLIC "-//W3C//DTD SVG 1.1//EN" "http://www.w3.org/Graphics/SVG/1.1/DTD/svg11.dtd"><svg t="1634039447799" class="icon" viewBox="0 0 1024 1024" version="1.1" xmlns="http://www.w3.org/2000/svg" p-id="5524" xmlns:xlink="http://www.w3.org/1999/xlink" width="200" height="200"><defs><style type="text/css"></style></defs><path d="M937.088 174.976l-69.184-83.648A72.32 72.32 0 0 0 810.688 64H213.312c-23.36 0-43.776 10.432-57.728 27.392l-68.672 83.584A97.472 97.472 0 0 0 64 238.208v622.208C64 915.2 108.8 960 163.584 960H860.48c54.72 0 99.52-44.8 99.52-99.584V238.208c0-23.872-8.448-46.272-22.912-63.232zM512 787.712L236.288 512h172.288V374.144H615.36V512h172.288L512 787.712zM167.36 167.36l34.432-68.928H822.08l34.432 68.928H167.36z" fill="#2c2c2c" p-id="5525"></path></svg>