<?xml version="1.0" standalone="no"?><!DOCTYPE svg PUBLIC "-//W3C//DTD SVG 1.1//EN" "http://www.w3.org/Graphics/SVG/1.1/DTD/svg11.dtd"><svg t="1634400798292" class="icon" viewBox="0 0 1024 1024" version="1.1" xmlns="http://www.w3.org/2000/svg" p-id="1592" xmlns:xlink="http://www.w3.org/1999/xlink" width="200" height="200"><defs><style type="text/css"></style></defs><path d="M564 96c44.864 105.888-160.864 170.752-180 259.008-17.504 80.992 121.888 176 122.016 176-21.28-33.504-36.768-61.76-58.016-114.016C412 328.736 667.36 249.12 564 96z m136 147.008s-179.872 11.36-188.992 128.992c-4.16 52.384 47.488 79.872 48.992 118.016 1.28 31.104-31.008 56.96-31.008 56.96s57.888-10.464 76-57.984c20-52.736-38.976-88.736-32.992-131.008 5.76-40.352 128-114.976 128-114.976z m44 270.976c-18.88-0.864-40.128 6.144-59.008 20 37.248-8.224 69.024 15.136 69.024 42.016 0 60.256-86.016 116.992-86.016 116.992s132.992-14.88 132.992-113.984c0-40.896-25.6-63.52-56.992-65.024z m-352.992 1.024c-46.4 1.6-139.008 9.248-139.008 44.992 0 49.76 215.744 53.632 370.016 23.008 0 0 41.984-29.248 52.992-40-101.12 20.992-332 24.256-332 5.984 0-16.736 73.984-33.984 73.984-33.984s-10.496-0.512-25.984 0z m-14.016 92c-25.376 0-63.008 19.744-63.008 38.976 0 38.752 191.04 68.512 332.032 12l-49.024-29.984c-95.616 31.264-272.256 20.864-220-20.992z m24 86.976c-34.624 0-56.992 21.888-56.992 38.016 0 49.6 206.88 54.496 288.992 4l-52-34.016c-61.248 26.4-215.36 30.272-180-8z m-116 45.024C228.512 737.888 192 763.488 192 784.96c0 114.368 579.008 108.896 579.008-8 0-19.36-22.88-28.608-31.008-32.992 47.264 111.744-472.992 103.008-472.992 36.992 0-14.976 38.496-29.984 73.984-22.976l-29.984-17.024a190.784 190.784 0 0 0-26.016-1.984zM832 816c-88 85.12-310.72 115.616-535.008 63.008 224.256 93.76 533.888 41.6 535.008-63.008z" fill="#2c2c2c" p-id="1593"></path></svg>