<?xml version="1.0" standalone="no"?><!DOCTYPE svg PUBLIC "-//W3C//DTD SVG 1.1//EN" "http://www.w3.org/Graphics/SVG/1.1/DTD/svg11.dtd"><svg t="1634039435512" class="icon" viewBox="0 0 1024 1024" version="1.1" xmlns="http://www.w3.org/2000/svg" p-id="4868" xmlns:xlink="http://www.w3.org/1999/xlink" width="200" height="200"><defs><style type="text/css"></style></defs><path d="M512 899.5c-213.668 0-387.5-173.832-387.5-387.5S298.332 124.5 512 124.5 899.5 298.332 899.5 512 725.668 899.5 512 899.5z" fill="#2C2C2C" p-id="4869"></path><path d="M512 137c-206.776 0-375 168.224-375 375s168.224 375 375 375 375-168.224 375-375-168.224-375-375-375m0-25c220.914 0 400 179.086 400 400S732.914 912 512 912 112 732.914 112 512s179.086-400 400-400z" fill="#2C2C2C" p-id="4870"></path><path d="M668.6 663.753c0-4.488-0.561-10.659-1.122-19.635-1.122-8.976-1.683-19.074-2.805-30.856-1.122-11.22-2.805-24.123-3.927-38.149l-5.61-42.076-5.61-40.393-6.726-41.514-8.415-40.393c-3.366-13.464-6.732-26.367-10.659-39.271a154.221 154.221 0 0 0-8.415-20.2 111.168 111.168 0 0 0-12.342-19.074 72.872 72.872 0 0 0-17.391-14.586c-6.732-3.366-13.464-5.61-21.318-5.61-12.342 0-24.684 5.049-35.9 14.586q-17.672 14.306-33.661 37.027a334.679 334.679 0 0 0-30.299 52.178c-10.1 19.074-18.513 38.149-26.367 56.662-7.858 19.071-15.151 37.026-20.761 53.857-5.61 17.391-10.1 31.417-12.9 42.076-6.732-1.683-11.781-2.805-15.147-3.927A45.35 45.35 0 0 0 378 562.771q-6.732 0-10.1 1.683a13.582 13.582 0 0 0-6.171 4.488 66.286 66.286 0 0 0-3.366 7.293 65.3 65.3 0 0 0-3.363 8.416 29.641 29.641 0 0 0 5.049 11.22 11.113 11.113 0 0 0 6.171 6.171c2.244 1.683 6.171 2.805 10.659 3.366 3.927 1.122 9.537 1.683 16.269 1.683-2.244 9.537-4.488 17.952-6.171 24.684l-4.488 21.879a190.114 190.114 0 0 0-4.489 21.88 128.852 128.852 0 0 0-1.122 20.2c0 3.366 1.122 5.049 4.488 7.293a48.917 48.917 0 0 0 9.537 5.049q5.049 1.683 11.781 3.366c3.927 0 7.293 0.561 9.537 0.561 5.049 0 10.1-2.805 14.586-7.293s6.732-8.976 6.732-13.464c0-12.342 0.561-26.367 1.683-40.954a388.937 388.937 0 0 1 5.61-43.759l44.881-3.366c14.025-1.122 28.05-2.244 42.076-4.488q20.2-2.525 42.076-6.732c13.464-2.244 28.612-5.61 45.442-9.537a257.894 257.894 0 0 0 1.683 28.05c0 10.1 0.561 17.391 0.561 20.757a62.138 62.138 0 0 1-1.122 10.659c-1.122 3.366-1.683 7.293-2.805 10.659a61.3 61.3 0 0 0-2.805 9.537c-1.122 3.366-1.122 6.171-1.122 9.537 0 6.171 3.366 11.781 10.659 16.269 6.732 4.488 13.464 6.732 20.757 6.732 9.537 0 16.269-2.805 20.757-8.976a36.2 36.2 0 0 0 6.73-21.881z m-57.78-113.885a699.019 699.019 0 0 1-79.1 15.147 539.831 539.831 0 0 1-81.907 6.171 813.017 813.017 0 0 1 35.344-102.1 399.135 399.135 0 0 1 50.488-89.766q8.415-11.781 16.83-18.513t13.464-6.732c0.561 0 1.683 0.561 3.927 1.683a24.4 24.4 0 0 1 3.366 3.927 134.959 134.959 0 0 1 8.415 24.123l6.171 25.245c1.683 8.415 3.366 16.269 4.488 24.123a226.576 226.576 0 0 0 4.494 22.444c2.244 14.025 4.488 29.173 6.732 44.881 2.239 16.268 4.483 32.537 7.288 49.367z" fill="#FFFFFF" p-id="4871"></path></svg>