<?xml version="1.0" standalone="no"?><!DOCTYPE svg PUBLIC "-//W3C//DTD SVG 1.1//EN" "http://www.w3.org/Graphics/SVG/1.1/DTD/svg11.dtd"><svg t="1634039445252" class="icon" viewBox="0 0 1024 1024" version="1.1" xmlns="http://www.w3.org/2000/svg" p-id="5392" xmlns:xlink="http://www.w3.org/1999/xlink" width="200" height="200"><defs><style type="text/css"></style></defs><path d="M512 899.5c-213.668 0-387.5-173.832-387.5-387.5S298.332 124.5 512 124.5 899.5 298.332 899.5 512 725.668 899.5 512 899.5z" fill="#2C2C2C" p-id="5393"></path><path d="M512 137c-206.776 0-375 168.224-375 375s168.224 375 375 375 375-168.224 375-375-168.224-375-375-375m0-25c220.914 0 400 179.086 400 400S732.914 912 512 912 112 732.914 112 512s179.086-400 400-400z" fill="#2C2C2C" p-id="5394"></path><path d="M584.048 681.643c0-5.357-3.571-10.714-9.524-16.667-7.143-5.357-13.1-8.333-19.048-8.929-8.333 2.381-15.476 4.762-21.429 5.952-2.381-41.071-3.571-98.214-3.571-172.024 0-38.1 1.786-82.738 5.952-132.738a216.364 216.364 0 0 0 23.214-2.381c13.1-1.191 20.238-5.952 20.238-14.881 0-5.357-2.976-11.31-8.333-18.452-5.952-5.952-10.714-9.524-14.881-9.524-2.381 0-8.333 1.786-16.667 4.762-8.929 3.571-16.667 5.952-22.619 6.548-14.286 1.786-33.333 3.571-57.143 4.762-11.9 1.19-17.262 4.762-17.262 11.9s2.976 13.1 8.929 17.857c5.357 5.357 11.31 7.738 17.262 7.738 2.381 0 8.333-0.6 17.262-1.786-2.381 47.024-2.976 94.643-2.976 143.452l2.976 160.714c-17.857 1.19-27.976 2.381-30.952 2.381C444.762 671.524 440 676.881 440 685.81c0 5.952 2.381 11.9 7.738 17.262Q454.881 712 463.81 712c42.261-5.952 76.19-8.929 101.19-10.119 12.5 0 19.048-7.143 19.048-20.238z" fill="#FFFFFF" p-id="5395"></path></svg>