<?xml version="1.0" standalone="no"?><!DOCTYPE svg PUBLIC "-//W3C//DTD SVG 1.1//EN" "http://www.w3.org/Graphics/SVG/1.1/DTD/svg11.dtd"><svg t="1634039457801" class="icon" viewBox="0 0 1024 1024" version="1.1" xmlns="http://www.w3.org/2000/svg" p-id="6046" xmlns:xlink="http://www.w3.org/1999/xlink" width="200" height="200"><defs><style type="text/css"></style></defs><path d="M512 899.5c-213.668 0-387.5-173.832-387.5-387.5S298.332 124.5 512 124.5 899.5 298.332 899.5 512 725.668 899.5 512 899.5z" fill="#2C2C2C" p-id="6047"></path><path d="M512 137c-206.776 0-375 168.224-375 375s168.224 375 375 375 375-168.224 375-375-168.224-375-375-375m0-25c220.914 0 400 179.086 400 400S732.914 912 512 912 112 732.914 112 512s179.086-400 400-400z" fill="#2C2C2C" p-id="6048"></path><path d="M674.539 685.333c0-5.674-1.7-9.645-3.972-11.348a2.485 2.485 0 0 1-1.7-0.567l-2.27-1.135a8.064 8.064 0 0 1-3.4-1.135c-1.135 0-2.837 0-3.972-1.135-10.213-2.837-22.128-10.213-36.312-21.56a179.717 179.717 0 0 1-22.133-19.29l-21.56-20.425c-8.511-7.376-17.021-14.752-24.965-21.56s-16.455-14.185-24.964-21.561L515.674 555.4l-20.426-13.613a484.835 484.835 0 0 0 61.277-20.426 253.877 253.877 0 0 0 49.362-27.234c13.617-10.213 24.965-21.56 33.475-34.043 7.938-12.484 11.915-27.233 11.915-43.684 0-17.021-5.106-31.773-14.184-43.688a109.221 109.221 0 0 0-35.177-28.369c-14.184-6.809-30.071-11.348-47.092-14.752a320.774 320.774 0 0 0-50.5-4.539c-5.674 0-14.752 0.567-27.8 1.135-13.617 1.135-28.369 3.4-45.39 6.241q-1.7-10.213-8.511-15.319c-4.539-3.4-9.078-5.106-14.184-5.106-9.078 0-16.454 6.809-22.7 19.858a178.08 178.08 0 0 0-18.156 3.4c-4.539 1.7-8.511 3.4-10.78 5.674s-3.972 3.972-4.539 5.674a12.338 12.338 0 0 0-1.135 5.674 16.176 16.176 0 0 0 6.814 13.617c3.972 3.972 9.645 6.241 17.589 6.809-1.7 12.482-2.837 22.7-2.837 30.638V472c0 17.021 0 34.61 1.135 52.766a13.631 13.631 0 0 1-5.674 1.134 6.169 6.169 0 0 1-2.837 0.567c-4.539 1.7-8.511 3.972-10.78 7.376A14.179 14.179 0 0 0 350 544.624c0 5.674 2.27 9.645 6.809 13.05s10.213 5.674 18.156 6.241q1.7 51.064 1.7 95.319c0 11.348 2.27 21.56 7.376 30.071 5.106 9.078 14.184 13.05 26.667 13.05S430 697.248 430 686.468a31.471 31.471 0 0 0-1.7-9.645 43.92 43.92 0 0 1-3.972-9.078 52.934 52.934 0 0 1-3.973-11.345c-1.7-3.4-2.27-7.376-2.27-11.915 0-12.482-0.567-26.667-0.567-41.418l-1.7-45.39a101.119 101.119 0 0 0 14.749-2.277c3.4-1.135 7.943-1.7 12.482-2.837 6.241 3.4 13.617 7.376 22.7 13.05 8.511 5.674 18.156 12.482 28.369 19.858 9.645 7.943 19.858 15.887 30.071 24.4 10.213 9.078 19.858 18.156 29.5 26.667 12.482 12.482 23.83 22.7 33.475 31.206 9.078 9.078 18.156 16.454 26.1 23.262 8.511 7.943 15.887 13.05 22.7 16.454 6.241 2.837 10.78 4.539 13.05 4.539a17.974 17.974 0 0 0 13.05-5.106 40.222 40.222 0 0 0 9.078-10.213 23.515 23.515 0 0 0 3.397-11.347z m-70.922-273.475c0 15.887-3.972 29.5-11.915 40.284a95.941 95.941 0 0 1-31.202 27.234c-12.482 7.943-26.667 13.617-41.418 18.156s-28.936 8.511-42.553 10.78l-29.5 5.106c-10.213 2.27-20.993 3.972-32.34 5.674v-14.184a55.047 55.047 0 0 1-0.567-9.645c0-19.291 0-38.014 0.567-56.17 0-18.156 1.135-36.879 2.837-56.17a21.284 21.284 0 0 1 0.567-5.674 40.7 40.7 0 0 1 0.567-7.376c15.319-3.972 30.071-6.809 43.688-9.078a332.821 332.821 0 0 1 41.986-2.837c9.645 0 20.426 1.135 31.773 2.27a126.885 126.885 0 0 1 32.908 7.943c9.645 3.972 18.156 9.078 24.965 15.887 6.233 7.375 9.637 16.453 9.637 27.8z" fill="#FFFFFF" p-id="6049"></path></svg>