<?xml version="1.0" standalone="no"?><!DOCTYPE svg PUBLIC "-//W3C//DTD SVG 1.1//EN" "http://www.w3.org/Graphics/SVG/1.1/DTD/svg11.dtd"><svg t="1634039437907" class="icon" viewBox="0 0 1024 1024" version="1.1" xmlns="http://www.w3.org/2000/svg" p-id="5000" xmlns:xlink="http://www.w3.org/1999/xlink" width="200" height="200"><defs><style type="text/css"></style></defs><path d="M512 899.5c-213.668 0-387.5-173.832-387.5-387.5S298.332 124.5 512 124.5 899.5 298.332 899.5 512 725.668 899.5 512 899.5z" fill="#2C2C2C" p-id="5001"></path><path d="M512 137c-206.776 0-375 168.224-375 375s168.224 375 375 375 375-168.224 375-375-168.224-375-375-375m0-25c220.914 0 400 179.086 400 400S732.914 912 512 912 112 732.914 112 512s179.086-400 400-400z" fill="#2C2C2C" p-id="5002"></path><path d="M652.406 469.329c0-20.9-0.581-42.38-0.581-64.441-1.161-20.9-1.161-42.38-1.161-63.861a39.142 39.142 0 0 0-5.806-19.739c-4.064-5.806-10.45-9.289-19.739-9.289-10.45 0-17.417 2.9-22.061 8.708-5.225 5.806-7.547 13.353-7.547 22.061 0 9.289 0.581 18 2.9 27.286l3.483 27.286 1.742 40.639c0 13.933 0.581 27.286 0.581 40.639s-0.581 26.125-1.161 38.9l-3.483 38.9c-2.322 16.255-4.644 31.93-7.547 46.444-3.483 15.094-8.128 27.866-14.514 38.9A74.744 74.744 0 0 1 550.81 667.3c-11.03 6.967-24.964 9.869-41.8 9.869-27.866 0-48.186-12.192-61.538-37.736-13.933-24.383-20.9-66.183-20.9-124.238 0-28.447 0.581-56.894 2.322-84.761q1.742-41.8 1.742-85.341c0-5.225-3.483-10.45-9.289-15.675-6.386-4.644-12.772-6.967-19.739-6.967s-13.353 2.322-19.739 6.967c-6.969 4.643-9.869 9.868-9.869 15.673a11.482 11.482 0 0 0 1.161 5.806 18.16 18.16 0 0 0 2.9 5.806 20.8 20.8 0 0 0 2.322 6.386 29.14 29.14 0 0 1 1.161 6.967v153.265a405.755 405.755 0 0 0 5.225 63.861 191.291 191.291 0 0 0 18.581 60.957A116.582 116.582 0 0 0 441.086 694c16.255 12.192 37.155 18 63.28 18 27.866 0 52.25-5.806 73.73-18 20.9-12.192 37.736-30.189 49.347-53.411 6.967-13.353 12.772-34.833 17.417-65.022 4.64-29.605 7.546-65.018 7.546-106.238z" fill="#FFFFFF" p-id="5003"></path></svg>