<?xml version="1.0" standalone="no"?><!DOCTYPE svg PUBLIC "-//W3C//DTD SVG 1.1//EN" "http://www.w3.org/Graphics/SVG/1.1/DTD/svg11.dtd"><svg t="1634039455387" class="icon" viewBox="0 0 1024 1024" version="1.1" xmlns="http://www.w3.org/2000/svg" p-id="5914" xmlns:xlink="http://www.w3.org/1999/xlink" width="200" height="200"><defs><style type="text/css"></style></defs><path d="M512 899.5c-213.668 0-387.5-173.832-387.5-387.5S298.332 124.5 512 124.5 899.5 298.332 899.5 512 725.668 899.5 512 899.5z" fill="#2C2C2C" p-id="5915"></path><path d="M512 137c-206.776 0-375 168.224-375 375s168.224 375 375 375 375-168.224 375-375-168.224-375-375-375m0-25c220.914 0 400 179.086 400 400S732.914 912 512 912 112 732.914 112 512s179.086-400 400-400z" fill="#2C2C2C" p-id="5916"></path><path d="M655.627 625.246a57.357 57.357 0 0 0-13.391-37.266c-9.316-9.9-20.961-19.214-34.935-28.53-15.138-8.734-30.859-17.467-47.744-25.619-17.467-8.151-33.77-16.885-49.491-26.2-9.316-5.822-18.632-11.645-26.783-18.632a110.631 110.631 0 0 1-21.542-22.119 91.951 91.951 0 0 1-14.556-26.783c-4.076-9.316-5.822-20.378-5.822-32.606a53.7 53.7 0 0 1 4.076-20.961 47.944 47.944 0 0 1 13.392-19.8c5.822-5.822 13.974-10.48 23.872-13.974 9.316-3.493 20.961-5.822 34.935-5.822 5.822 0 11.645 0.582 18.049 1.164 6.4 1.164 12.809 3.493 19.8 5.822 5.822 2.329 11.645 5.822 17.467 9.316 5.24 4.658 9.9 9.316 13.392 15.138 2.329 4.658 4.658 9.9 6.987 15.138 1.164 2.329 1.747 4.658 2.911 6.987a35.614 35.614 0 0 0 2.911 6.987 21.411 21.411 0 0 0 8.151 10.48c3.493 2.329 8.734 3.493 16.885 3.493 5.822 0 10.48-2.329 15.138-6.987a22.991 22.991 0 0 0 6.987-16.3c0-6.987-2.911-15.138-7.569-23.29a158.141 158.141 0 0 0-18.049-22.125 233.147 233.147 0 0 0-23.29-18.632 232.468 232.468 0 0 0-22.708-12.227 205.176 205.176 0 0 0-26.2-7.569c-9.9-1.164-18.632-2.329-26.783-2.329a255.9 255.9 0 0 0-53.566 5.822c-16.3 4.076-30.859 10.48-42.5 18.632a95.647 95.647 0 0 0-28.53 32.606c-6.987 13.974-9.9 29.694-9.9 48.326 0 14.556 2.329 27.365 8.151 39.01a102.644 102.644 0 0 0 21.536 32.605 181.645 181.645 0 0 0 32.024 26.779 345.416 345.416 0 0 0 37.846 23.29c13.974 8.151 28.53 15.138 43.086 22.125 13.974 6.987 26.2 13.974 37.846 20.961a163.041 163.041 0 0 1 28.53 22.707c6.987 8.151 11.063 17.467 11.063 27.365q0 12.227-12.227 20.961c-8.151 5.822-17.467 9.9-27.948 13.392-11.063 3.493-22.125 6.4-33.77 7.569a190.729 190.729 0 0 1-27.948 2.329c-12.227 0-23.29-1.164-32.606-4.658-9.9-2.329-17.467-5.822-22.125-9.316a91.953 91.953 0 0 1-9.316-8.151 60.83 60.83 0 0 1-12.228-12.223 70.014 70.014 0 0 1-11.062-12.227l-7.569-9.9a57.245 57.245 0 0 1-8.734-6.987c-3.493-1.747-6.4-2.911-9.9-2.911a26.891 26.891 0 0 0-16.883 5.824c-4.658 4.658-6.987 9.316-6.987 14.556 0 8.734 3.493 18.049 10.48 27.365s16.885 18.049 29.112 26.2a173.676 173.676 0 0 0 43.086 20.378c15.721 5.24 32.606 7.569 51.237 7.569a417.959 417.959 0 0 0 52.4-2.911c17.467-2.329 34.352-6.4 49.491-12.809 15.138-5.822 27.365-13.974 37.263-25.619 9.318-11.643 14.558-26.779 14.558-45.413z" fill="#FFFFFF" p-id="5917"></path></svg>