<?xml version="1.0" standalone="no"?><!DOCTYPE svg PUBLIC "-//W3C//DTD SVG 1.1//EN" "http://www.w3.org/Graphics/SVG/1.1/DTD/svg11.dtd"><svg t="1665843771554" class="icon" viewBox="0 0 1024 1024" version="1.1" xmlns="http://www.w3.org/2000/svg" p-id="830" xmlns:xlink="http://www.w3.org/1999/xlink" width="200" height="200"><path d="M901.533538 400.147692v161.083077a196.923077 196.923077 0 0 1-173.430153 195.387077l-82.057847 168.684308-105.944615-167.148308H315.076923a196.923077 196.923077 0 0 1-196.923077-196.923077V315.076923A196.923077 196.923077 0 0 1 315.076923 118.153846h389.533539a196.923077 196.923077 0 0 1 196.923076 196.923077v76.583385l4.312616-0.256zM315.076923 393.846154a59.076923 59.076923 0 1 0 59.076923 59.076923 59.076923 59.076923 0 0 0-59.076923-59.076923z m196.923077 0a59.076923 59.076923 0 1 0 59.076923 59.076923 59.076923 59.076923 0 0 0-59.076923-59.076923z m196.923077 0a59.076923 59.076923 0 1 0 59.076923 59.076923 59.076923 59.076923 0 0 0-59.076923-59.076923z" fill="#2c2c2c" p-id="831"></path></svg>