<?xml version="1.0" standalone="no"?><!DOCTYPE svg PUBLIC "-//W3C//DTD SVG 1.1//EN" "http://www.w3.org/Graphics/SVG/1.1/DTD/svg11.dtd"><svg t="1637915900704" class="icon" viewBox="0 0 1024 1024" version="1.1" xmlns="http://www.w3.org/2000/svg" p-id="2007" xmlns:xlink="http://www.w3.org/1999/xlink" width="200" height="200"><defs><style type="text/css"></style></defs><path d="M455.3 397.9h115.4c10.7 0 19.2-8.5 19.2-19.2v-96.2h68.8c17.3 0 25.8-20.7 13.5-32.7L526.4 104c-7.3-7.5-19.4-7.7-26.9-0.4l-0.4 0.4-145.7 145.8c-7.4 7.5-7.4 19.7 0.2 27.1 3.6 3.6 8.6 5.6 13.7 5.5h68.8v96.2c0 10.8 8.4 19.2 19.2 19.3z m-76.9 38.4h-96.2v-68.8c0-17.3-20.7-25.8-32.7-13.5L103.8 499.7c-7.5 7.3-7.7 19.4-0.4 26.9l0.4 0.4 145.8 145.8c11.9 11.9 32.7 3.5 32.7-13.9v-68.8h96.2c10.7 0 19.2-8.5 19.2-19.2V455.5c0.1-10.5-8.4-19.1-18.9-19.2h-0.4z m544.2 63.5L776.8 354c-7.4-7.6-19.6-7.8-27.2-0.4-3.7 3.6-5.8 8.6-5.8 13.8v68.8h-96.2c-10.5-0.1-19.1 8.4-19.2 18.9v115.7c0 10.8 8.5 19.2 19.2 19.2h96.2v69c0 17.3 20.7 25.8 32.7 13.5l145.8-145.8c7.5-7.2 7.8-19.2 0.6-26.8-0.2 0-0.3-0.1-0.3-0.1zM570.7 628.6H455.3c-10.5-0.1-19.1 8.4-19.2 18.9V744h-68.8c-17.3 0-25.8 20.7-13.5 32.7l145.8 145.8c7.3 7.5 19.4 7.7 26.9 0.4l0.4-0.4 145.8-145.8c7.4-7.5 7.4-19.7-0.2-27.1-3.6-3.5-8.3-5.5-13.3-5.5h-69.1v-96.2c0.1-10.5-8.4-19.1-18.9-19.2-0.3-0.1-0.4-0.1-0.5-0.1z" fill="#2c2c2c" p-id="2008"></path></svg>