<?xml version="1.0" standalone="no"?><!DOCTYPE svg PUBLIC "-//W3C//DTD SVG 1.1//EN" "http://www.w3.org/Graphics/SVG/1.1/DTD/svg11.dtd"><svg class="icon" width="200px" height="200.00px" viewBox="0 0 1024 1024" version="1.1" xmlns="http://www.w3.org/2000/svg"><path d="M512 0c282.752 0 512 229.248 512 512s-229.248 512-512 512S0 794.752 0 512 229.248 0 512 0z m170.666667 230.4c-51.2 0-89.6 38.4-89.6 89.6 0 42.24 26.112 75.733333 64 86.186667v3.413333c0 34.133333-64 64-123.733334 89.6-38.4 17.066667-72.533333 34.133333-102.4 55.466667V406.186667c37.888-10.453333 64-43.946667 64-86.186667 0-51.2-38.4-89.6-89.6-89.6-51.2 0-89.6 38.4-89.6 89.6 0 42.24 26.112 75.733333 64 86.186667v232.96c-37.888 10.453333-64 43.946667-64 86.186666 0 51.2 38.4 89.6 89.6 89.6 51.2 0 89.6-38.4 89.6-89.6 0-42.197333-26.069333-75.690667-64-86.186666 1.066667-33.792 64.512-63.36 123.733334-88.746667 76.8-34.133333 153.6-68.266667 153.6-136.533333v-7.68c37.888-10.453333 64-43.946667 64-86.186667 0-51.2-38.4-89.6-89.6-89.6zM405.333333 686.933333c21.333333 0 38.4 17.066667 38.4 38.4s-17.066667 38.4-38.4 38.4-38.4-17.066667-38.4-38.4 17.066667-38.4 38.4-38.4zM682.666667 281.6c21.333333 0 38.4 17.066667 38.4 38.4s-17.066667 38.4-38.4 38.4-38.4-17.066667-38.4-38.4 17.066667-38.4 38.4-38.4z m-277.333334 0c21.333333 0 38.4 17.066667 38.4 38.4s-17.066667 38.4-38.4 38.4-38.4-17.066667-38.4-38.4 17.066667-38.4 38.4-38.4z" fill="#2c2c2c" /></svg>