<?xml version="1.0" standalone="no"?><!DOCTYPE svg PUBLIC "-//W3C//DTD SVG 1.1//EN" "http://www.w3.org/Graphics/SVG/1.1/DTD/svg11.dtd"><svg t="1634039380559" class="icon" viewBox="0 0 1024 1024" version="1.1" xmlns="http://www.w3.org/2000/svg" p-id="2785" xmlns:xlink="http://www.w3.org/1999/xlink" width="200" height="200"><defs><style type="text/css"></style></defs><path d="M927.403 797.27a12.8 12.8 0 0 0-12.8-12.8h-272.47a150.613 150.613 0 0 0-143.146-104.107A150.741 150.741 0 0 0 355.84 784.64h-65.28a112.683 112.683 0 0 1-112.512-112.512c0-29.867 11.776-58.027 33.067-79.317a112.213 112.213 0 0 1 79.445-33.195h65.28a150.613 150.613 0 0 0 143.104 104.235 150.784 150.784 0 0 0 143.147-104.107h80.64a204.416 204.416 0 0 0 144.81-60.288 203.52 203.52 0 0 0 60.16-144.81 205.141 205.141 0 0 0-204.8-204.971h-79.786A150.613 150.613 0 0 0 499.157 42.667a150.87 150.87 0 0 0-144.042 107.008H98.432a12.8 12.8 0 0 0-12.8 12.8v66.858a12.8 12.8 0 0 0 12.8 12.8h258.475a150.485 150.485 0 0 0 142.08 101.462A150.613 150.613 0 0 0 641.024 242.26h81.707a112.555 112.555 0 0 1 112.384 112.512c0 29.867-11.648 58.027-32.939 79.318a112.213 112.213 0 0 1-79.445 33.194h-80.64a150.613 150.613 0 0 0-143.147-104.234A150.955 150.955 0 0 0 355.84 467.157h-65.365a204.416 204.416 0 0 0-144.811 60.288 203.605 203.605 0 0 0-60.33 144.811 205.227 205.227 0 0 0 204.97 204.97h65.365a150.613 150.613 0 0 0 143.104 104.107A150.784 150.784 0 0 0 641.92 877.227h272.683a12.8 12.8 0 0 0 12.8-12.8v-67.158zM498.944 256.212a63.147 63.147 0 0 1-61.525-49.749c0.768-3.413 1.194-6.912 1.194-10.41 0-4.14-0.725-8.278-1.834-12.118 4.608-30.293 30.464-53.717 62.165-53.717s57.728 23.466 62.165 53.888a43.64 43.64 0 0 0-0.469 22.357 63.232 63.232 0 0 1-61.696 49.75z m0 194.134a63.147 63.147 0 0 1 61.995 52.181 50.347 50.347 0 0 0-1.366 10.837c0 3.67 0.598 7.339 1.366 10.88a63.147 63.147 0 0 1-61.995 52.182 62.933 62.933 0 0 1-61.867-52.054c0.939-3.498 1.579-7.168 1.579-11.008s-0.64-7.466-1.536-11.008a62.933 62.933 0 0 1 61.867-52.053z m0 443.434a62.976 62.976 0 0 1-61.867-51.882c0.939-3.542 1.579-7.211 1.579-11.051s-0.64-7.467-1.536-11.008a62.933 62.933 0 0 1 61.867-52.053 63.147 63.147 0 0 1 61.952 52.181 50.39 50.39 0 0 0-1.366 10.88c0 3.67 0.598 7.339 1.366 10.88a63.019 63.019 0 0 1-61.995 52.053z" fill="#2c2c2c" p-id="2786"></path><path d="M927.403 797.27a12.8 12.8 0 0 0-12.8-12.8h-272.47a150.613 150.613 0 0 0-143.146-104.107A150.741 150.741 0 0 0 355.84 784.64h-65.28a112.683 112.683 0 0 1-112.512-112.512c0-29.867 11.776-58.027 33.067-79.317a112.213 112.213 0 0 1 79.445-33.195h65.28a150.613 150.613 0 0 0 143.104 104.235 150.784 150.784 0 0 0 143.147-104.107h80.64a204.416 204.416 0 0 0 144.81-60.288 203.52 203.52 0 0 0 60.16-144.81 205.141 205.141 0 0 0-204.8-204.971h-79.786A150.613 150.613 0 0 0 499.157 42.667a150.87 150.87 0 0 0-144.042 107.008H98.432a12.8 12.8 0 0 0-12.8 12.8v66.858a12.8 12.8 0 0 0 12.8 12.8h258.475a150.485 150.485 0 0 0 142.08 101.462A150.613 150.613 0 0 0 641.024 242.26h81.707a112.555 112.555 0 0 1 112.384 112.512c0 29.867-11.648 58.027-32.939 79.318a112.213 112.213 0 0 1-79.445 33.194h-80.64a150.613 150.613 0 0 0-143.147-104.234A150.955 150.955 0 0 0 355.84 467.157h-65.365a204.416 204.416 0 0 0-144.811 60.288 203.605 203.605 0 0 0-60.33 144.811 205.227 205.227 0 0 0 204.97 204.97h65.365a150.613 150.613 0 0 0 143.104 104.107A150.784 150.784 0 0 0 641.92 877.227h272.683a12.8 12.8 0 0 0 12.8-12.8v-67.158zM498.944 256.212a63.147 63.147 0 0 1-61.525-49.749c0.768-3.413 1.194-6.912 1.194-10.41 0-4.14-0.725-8.278-1.834-12.118 4.608-30.293 30.464-53.717 62.165-53.717s57.728 23.466 62.165 53.888a43.64 43.64 0 0 0-0.469 22.357 63.232 63.232 0 0 1-61.696 49.75z m0 194.134a63.147 63.147 0 0 1 61.995 52.181 50.347 50.347 0 0 0-1.366 10.837c0 3.67 0.598 7.339 1.366 10.88a63.147 63.147 0 0 1-61.995 52.182 62.933 62.933 0 0 1-61.867-52.054c0.939-3.498 1.579-7.168 1.579-11.008s-0.64-7.466-1.536-11.008a62.933 62.933 0 0 1 61.867-52.053z m0 443.434a62.976 62.976 0 0 1-61.867-51.882c0.939-3.542 1.579-7.211 1.579-11.051s-0.64-7.467-1.536-11.008a62.933 62.933 0 0 1 61.867-52.053 63.147 63.147 0 0 1 61.952 52.181 50.39 50.39 0 0 0-1.366 10.88c0 3.67 0.598 7.339 1.366 10.88a63.019 63.019 0 0 1-61.995 52.053z" fill="#2c2c2c" p-id="2787"></path></svg>