<?xml version="1.0" standalone="no"?><!DOCTYPE svg PUBLIC "-//W3C//DTD SVG 1.1//EN" "http://www.w3.org/Graphics/SVG/1.1/DTD/svg11.dtd"><svg t="1663569930277" class="icon" viewBox="0 0 1024 1024" version="1.1" xmlns="http://www.w3.org/2000/svg" p-id="2102" xmlns:xlink="http://www.w3.org/1999/xlink" width="200" height="200"><path d="M1002.212881 384.607173c-17.554684-70.218737-51.068172-122.88279-121.286909-122.88279h-90.965182v108.519866c0 84.58166-71.814617 154.800397-151.608636 154.800397H394.182455c-67.026976 0-121.286909 57.451694-121.286909 124.47867v231.402656c0 65.431096 57.451694 105.328105 121.286909 124.47867 76.602258 22.342325 151.608637 27.129967 244.169699 0 60.643455-17.554684 121.286909-54.259933 121.286909-124.47867v-92.561062H515.469364v-30.321727h365.456608c70.218737 0 97.348703-49.472292 121.286909-122.88279 25.534086-79.794019 25.534086-153.204517 0-250.55322z m-349.497804 462.805311c25.534086 0 46.280531 20.746445 46.280531 46.280531 0 25.534086-20.746445 46.280531-46.280531 46.280531-25.534086 1.59588-46.280531-20.746445-46.280531-46.280531 0-25.534086 20.746445-46.280531 46.280531-46.280531zM383.011292 493.127039h244.169699c67.026976 0 121.286909-55.855813 121.286909-124.47867V137.245713c0-65.431096-55.855813-114.903388-121.286909-126.07455-81.3899-12.767043-170.759201-12.767043-244.169699 0-103.732225 17.554684-121.286909 55.855813-121.286909 126.07455v92.561062h244.169699v30.321728h-335.134881c-70.218737 0-132.458072 43.08877-151.608636 122.882789-22.342325 92.561062-23.938206 150.012756 0 247.36146 17.554684 71.814617 59.047574 122.88279 129.266311 122.882789h82.98578v-111.711626c-1.59588-78.198139 68.622857-148.416876 151.608636-148.416876z m-15.958804-325.559599c-25.534086 0-46.280531-20.746445-46.280531-46.280531 0-25.534086 20.746445-46.280531 46.280531-46.280531 25.534086 0 46.280531 20.746445 46.280532 46.280531s-20.746445 46.280531-46.280532 46.280531z" p-id="2103"></path></svg>