<?xml version="1.0" standalone="no"?><!DOCTYPE svg PUBLIC "-//W3C//DTD SVG 1.1//EN" "http://www.w3.org/Graphics/SVG/1.1/DTD/svg11.dtd"><svg t="1665844610229" class="icon" viewBox="0 0 1024 1024" version="1.1" xmlns="http://www.w3.org/2000/svg" p-id="983" xmlns:xlink="http://www.w3.org/1999/xlink" width="200" height="200"><path d="M288.467663 288.811692 83.082815 288.811692c-18.921552 0-34.230808-15.309256-34.230808-34.058794s15.309256-34.058794 34.230808-34.058794l205.212834 0c18.921552 0 34.230808 15.309256 34.230808 34.058794S307.217201 288.811692 288.467663 288.811692L288.467663 288.811692zM280.038972 625.959348 83.082815 625.959348c-18.921552 0-34.230808-15.309256-34.230808-34.058794 0-18.749538 15.309256-34.058794 34.230808-34.058794l196.956157 0c18.921552 0 34.230808 15.309256 34.230808 34.058794C314.26978 610.650092 298.960524 625.959348 280.038972 625.959348L280.038972 625.959348zM239.615656 457.041492l-156.532841 0c-18.921552 0-34.230808-15.309256-34.230808-34.230808 0-18.921552 15.309256-34.230808 34.230808-34.230808l156.532841 0c18.921552 0 34.230808 15.309256 34.230808 34.230808C273.846464 441.732236 258.537208 457.041492 239.615656 457.041492L239.615656 457.041492zM459.965732 801.069713l-376.710902 0c-18.921552 0-34.230808-15.309256-34.230808-34.230808S64.333277 732.780111 83.254829 732.780111l376.710902 0c18.921552 0 34.230808 15.309256 34.230808 34.230808C494.19654 785.760457 478.887284 801.069713 459.965732 801.069713L459.965732 801.069713z" fill="#2c2c2c" p-id="984"></path><path d="M420.746514 426.078952c0-115.765496 94.435747-210.029229 210.545271-210.029229s210.545271 94.091718 210.545271 210.029229S747.40131 636.108181 631.291786 636.108181 420.746514 541.844448 420.746514 426.078952L420.746514 426.078952 420.746514 426.078952zM967.751386 816.206954l-147.416093-192.48379c52.29229-49.884092 85.146985-119.893835 85.146985-197.472199 0-150.684361-122.990089-273.330422-274.190492-273.330422s-274.190492 122.646061-274.190492 273.330422 122.990089 273.330422 274.190492 273.330422c48.679993 0 94.263733-12.901058 133.998992-35.090879l147.932135 193.171846c6.70855 8.77272 17.029397 13.589115 27.178229 13.589115 7.224593 0 14.621199-2.236183 20.641693-7.052579C976.352091 852.501932 979.104317 831.000168 967.751386 816.206954L967.751386 816.206954 967.751386 816.206954zM778.707878 424.874853c0 81.018646-65.70939 146.556022-146.556022 146.556022s-146.556022-65.70939-146.556022-146.556022 65.70939-146.556022 146.556022-146.556022S778.707878 344.028221 778.707878 424.874853z" fill="#2c2c2c" p-id="985"></path></svg>