<?xml version="1.0" standalone="no"?><!DOCTYPE svg PUBLIC "-//W3C//DTD SVG 1.1//EN" "http://www.w3.org/Graphics/SVG/1.1/DTD/svg11.dtd"><svg t="1634039440705" class="icon" viewBox="0 0 1056 1024" version="1.1" xmlns="http://www.w3.org/2000/svg" p-id="5132" xmlns:xlink="http://www.w3.org/1999/xlink" width="206.25" height="200"><defs><style type="text/css"></style></defs><path d="M868.8 758.4L766.4 656c35.2-51.2 54.4-112 54.4-179.2C820.8 304 680 160 500.8 160 328 160 184 300.8 184 476.8c0 172.8 140.8 316.8 320 316.8 67.2 0 124.8-19.2 176-51.2L785.6 848c22.4 22.4 60.8 22.4 86.4 0 22.4-28.8 22.4-67.2-3.2-89.6zM283.2 473.6C283.2 355.2 382.4 256 504 256s220.8 96 220.8 217.6S625.6 691.2 504 691.2c-124.8 3.2-220.8-96-220.8-217.6z" fill="#2c2c2c" p-id="5133"></path></svg>