<?xml version="1.0" standalone="no"?><!DOCTYPE svg PUBLIC "-//W3C//DTD SVG 1.1//EN" "http://www.w3.org/Graphics/SVG/1.1/DTD/svg11.dtd"><svg t="1634039384439" class="icon" viewBox="0 0 1024 1024" version="1.1" xmlns="http://www.w3.org/2000/svg" p-id="2916" xmlns:xlink="http://www.w3.org/1999/xlink" width="200" height="200"><defs><style type="text/css"></style></defs><path d="M673.777 465.882v93.57c0 3.4-1.214 6.797-3.52 9.831s-5.097 5.098-8.131 5.219l-78.4 12.136c-3.763 11.772-9.103 24.637-16.142 38.472 11.53 16.142 26.579 35.438 45.511 58.133 2.306 3.762 3.52 7.04 3.52 10.073 0 4.005-1.214 7.16-3.52 9.467-7.767 10.073-21.724 25.243-41.749 45.268-20.146 20.146-33.374 30.098-39.564 30.098-3.762 0-7.16-1.214-10.68-3.52l-58.133-45.39c-12.379 6.433-25.364 11.652-38.957 15.535-3.762 36.41-7.525 62.502-11.651 78.4-2.306 8.132-7.403 12.137-15.17 12.137h-93.935c-3.763 0-7.04-1.335-10.073-3.884-3.034-2.548-4.734-5.34-5.098-8.86l-11.65-77.307c-11.53-3.399-24.152-8.617-37.987-15.535l-59.832 45.026c-2.306 2.306-5.704 3.52-10.073 3.52-3.762 0-7.16-1.336-10.68-4.006-48.545-44.904-72.818-71.725-72.818-80.949 0-3.034 1.214-6.31 3.52-9.466 3.398-4.733 10.315-13.593 20.753-26.821 10.437-13.107 18.447-23.302 23.665-30.948-7.767-14.806-13.592-28.52-17.597-41.506L38.563 572.44c-3.398-0.364-6.31-1.82-8.617-4.855-2.306-2.912-3.52-6.19-3.52-9.83v-93.571c0-3.398 1.214-6.796 3.52-9.83 2.306-3.156 5.098-5.098 8.132-5.219l78.4-12.136c3.762-11.773 9.102-24.637 16.141-38.472-11.53-16.142-26.578-35.438-45.51-58.133-2.307-3.762-3.52-7.04-3.52-10.073 0-4.005 1.213-7.403 3.52-10.073 7.402-10.074 21.238-25.244 41.505-45.026s33.497-29.855 39.929-29.855c3.762 0 7.16 1.213 10.68 3.52l58.133 45.51c11.53-6.068 24.515-11.53 38.957-16.141 3.762-36.409 7.525-62.26 11.651-77.794 2.306-8.131 7.403-12.136 15.17-12.136h94.057c3.762 0 7.039 1.335 10.073 3.884 3.034 2.548 4.733 5.46 5.097 8.86l11.65 77.307c11.53 3.398 24.152 8.617 37.987 15.535l59.711-45.026c2.67-2.306 6.068-3.52 10.073-3.52 3.762 0 7.16 1.336 10.68 4.006 48.545 44.904 72.818 71.725 72.818 80.949 0 2.67-1.214 5.825-3.52 9.466-4.005 5.34-11.165 14.564-21.238 27.307s-17.598 22.937-22.816 30.34c7.767 16.142 13.47 29.977 17.233 41.506l76.823 11.651c3.398 0.729 6.31 2.428 8.617 5.219 2.063 3.034 3.398 6.31 3.398 10.073zM441.609 603.386c25.365-25.365 37.987-55.705 37.987-91.629s-12.743-66.143-37.987-91.629c-25.364-25.365-55.705-37.986-91.629-37.986s-66.142 12.621-91.629 37.986c-25.364 25.365-37.986 55.706-37.986 91.63s12.622 66.142 37.986 91.628c25.365 25.365 55.706 37.987 91.63 37.987s66.385-12.743 91.628-37.987z m555.843-385.813v70.876c0 5.34-25.244 10.68-75.367 15.535-4.005 9.102-9.102 17.84-15.17 26.214 17.234 38.108 25.608 61.41 25.608 69.784 0 1.335-0.729 2.549-1.942 3.52-41.264 23.908-61.895 35.923-62.745 35.923-2.67 0-10.437-7.889-23.18-23.666-12.743-15.777-21.603-27.306-26.215-34.346-6.796 0.729-11.772 1.093-15.17 1.093-3.52 0-8.374-0.364-15.17-1.093-4.733 7.04-13.472 18.448-26.215 34.346-12.743 15.899-20.51 23.666-23.18 23.666-0.728 0-21.603-11.894-62.745-35.923-1.335-1.093-1.941-2.185-1.941-3.52 0-8.374 8.616-31.676 25.607-69.784-6.068-8.374-11.165-17.233-15.17-26.214-50.123-5.097-75.367-10.316-75.367-15.535v-70.876c0-5.34 25.244-10.68 75.367-15.534 4.369-9.709 9.466-18.447 15.17-26.214-17.233-38.108-25.607-61.41-25.607-69.784 0-1.335 0.728-2.549 1.941-3.52 1.335-0.728 7.16-4.005 17.598-10.073s20.389-11.772 29.855-17.233c9.467-5.34 14.564-8.132 15.17-8.132 2.67 0 10.438 7.889 23.181 23.423s21.603 27.064 26.214 34.103c6.797-0.728 11.773-1.092 15.17-1.092 3.52 0 8.375 0.364 15.171 1.092 17.234-23.908 32.647-42.84 46.482-56.676l3.034-1.092c1.335 0 22.21 11.772 62.745 35.438 1.335 1.092 1.942 2.184 1.942 3.52 0 8.373-8.617 31.675-25.608 69.783 5.704 7.767 10.801 16.505 15.17 26.214 50.123 5.098 75.367 10.437 75.367 15.777z m0 517.735v70.876c0 5.34-25.244 10.68-75.367 15.534-4.005 9.103-9.102 17.84-15.17 26.215 17.234 38.108 25.608 61.41 25.608 69.783 0 1.335-0.729 2.549-1.942 3.52-41.264 23.908-61.895 35.923-62.745 35.923-2.67 0-10.437-8.01-23.18-23.665-12.743-15.778-21.603-27.307-26.215-34.346-6.796 0.728-11.772 1.092-15.17 1.092-3.52 0-8.374-0.364-15.17-1.092-4.733 7.039-13.472 18.447-26.215 34.346-12.743 15.777-20.51 23.665-23.18 23.665-0.728 0-21.603-12.015-62.745-35.923-1.335-1.092-1.941-2.185-1.941-3.52 0-8.374 8.616-31.675 25.607-69.783-6.068-8.374-11.165-17.234-15.17-26.215-50.123-5.097-75.367-10.316-75.367-15.534v-70.876c0-5.34 25.244-10.68 75.367-15.535 4.369-9.709 9.466-18.447 15.17-26.214-17.233-38.108-25.607-61.41-25.607-69.784 0-1.335 0.728-2.548 1.941-3.52 1.335-0.727 7.16-4.004 17.598-10.072s20.389-11.773 29.855-17.234c9.467-5.34 14.564-8.131 15.17-8.131 2.67 0 10.438 7.888 23.181 23.423s21.603 27.064 26.214 34.103c6.797-0.728 11.773-1.092 15.17-1.092 3.52 0 8.375 0.364 15.171 1.092 17.234-23.909 32.647-42.841 46.482-56.677l3.034-1.092c1.335 0 22.21 11.772 62.745 35.438 1.335 1.092 1.942 2.185 1.942 3.52 0 8.374-8.617 31.675-25.608 69.783 5.704 7.767 10.801 16.506 15.17 26.215 50.123 5.097 75.367 10.316 75.367 15.777zM867.958 252.89c0-17.476-6.433-32.647-19.176-45.511-12.743-12.743-28.035-19.175-45.51-19.175s-32.648 6.432-45.512 19.175c-12.743 12.864-19.175 28.035-19.175 45.511 0 17.84 6.31 33.132 18.932 45.633 12.622 12.621 27.914 18.932 45.633 18.932s33.132-6.31 45.632-18.932c12.622-12.38 19.176-27.793 19.176-45.633z m0 517.856c0-17.476-6.433-32.647-19.176-45.511-12.743-12.743-28.035-19.176-45.51-19.176s-32.648 6.433-45.512 19.176c-12.743 12.743-19.175 28.035-19.175 45.51 0 17.841 6.31 33.133 18.932 45.633s27.914 18.933 45.633 18.933 33.132-6.31 45.632-18.933c12.622-12.5 19.176-27.913 19.176-45.632z" fill="#2c2c2c" p-id="2917"></path></svg>