<?xml version="1.0" standalone="no"?><!DOCTYPE svg PUBLIC "-//W3C//DTD SVG 1.1//EN" "http://www.w3.org/Graphics/SVG/1.1/DTD/svg11.dtd"><svg t="1634039418977" class="icon" viewBox="0 0 1024 1024" version="1.1" xmlns="http://www.w3.org/2000/svg" p-id="4088" xmlns:xlink="http://www.w3.org/1999/xlink" width="200" height="200"><defs><style type="text/css"></style></defs><path d="M303.923 864.87l-45.363 45.364a51.2 51.2 0 0 1-72.397 0l-72.397-72.397a51.2 51.2 0 0 1 0-72.397l45.364-45.363A407.142 407.142 0 0 1 115.302 614.4H51.2A51.2 51.2 0 0 1 0 563.2V460.8a51.2 51.2 0 0 1 51.2-51.2h64.102c9.677-37.58 24.576-73.062 43.828-105.677l-45.364-45.363a51.2 51.2 0 0 1 0-72.397l72.397-72.397a51.2 51.2 0 0 1 72.397 0l45.363 45.364A407.142 407.142 0 0 1 409.6 115.302V51.2A51.2 51.2 0 0 1 460.8 0h102.4a51.2 51.2 0 0 1 51.2 51.2v64.102c37.58 9.677 73.062 24.576 105.677 43.828l45.363-45.364a51.2 51.2 0 0 1 72.397 0l72.397 72.397a51.2 51.2 0 0 1 0 72.397l-45.364 45.363A406.203 406.203 0 0 1 908.698 409.6H972.8a51.2 51.2 0 0 1 51.2 51.2v102.4a51.2 51.2 0 0 1-51.2 51.2h-64.102a407.142 407.142 0 0 1-43.828 105.677l45.364 45.363a51.2 51.2 0 0 1 0 72.397l-72.397 72.397a51.2 51.2 0 0 1-72.397 0l-45.363-45.364A407.142 407.142 0 0 1 614.4 908.698V972.8a51.2 51.2 0 0 1-51.2 51.2H460.8a51.2 51.2 0 0 1-51.2-51.2v-64.102a407.142 407.142 0 0 1-105.677-43.828zM512 716.8a204.8 204.8 0 1 0 0-409.6 204.8 204.8 0 0 0 0 409.6z" fill="#2c2c2c" p-id="4089"></path></svg>