<?xml version="1.0" standalone="no"?><!DOCTYPE svg PUBLIC "-//W3C//DTD SVG 1.1//EN" "http://www.w3.org/Graphics/SVG/1.1/DTD/svg11.dtd"><svg t="1634039432880" class="icon" viewBox="0 0 1025 1024" version="1.1" xmlns="http://www.w3.org/2000/svg" p-id="4738" xmlns:xlink="http://www.w3.org/1999/xlink" width="200.1953125" height="200"><defs><style type="text/css"></style></defs><path d="M585.184 804.576h365.728v-73.152H585.184v73.152zM365.76 512h585.152v-73.152H365.76V512z m365.696-292.576H950.88v-73.152H731.456v73.152z m292.576 475.424V841.12q0 14.848-10.848 25.728t-25.728 10.848H36.608q-14.848 0-25.728-10.848T0.032 841.12V694.848Q0.032 680 10.88 669.12t25.728-10.848h950.848q14.848 0 25.728 10.848t10.848 25.728z m0-292.576v146.272q0 14.848-10.848 25.728t-25.728 10.848H36.608q-14.848 0-25.728-10.848T0.032 548.544V402.272q0-14.848 10.848-25.728t25.728-10.848h950.848q14.848 0 25.728 10.848t10.848 25.728z m0-292.544V256q0 14.848-10.848 25.728t-25.728 10.848H36.608q-14.848 0-25.728-10.848T0.032 256V109.728Q0.032 94.88 10.88 84t25.728-10.848h950.848q14.848 0 25.728 10.848t10.848 25.728z" fill="#2c2c2c" p-id="4739"></path></svg>