<?xml version="1.0" standalone="no"?><!DOCTYPE svg PUBLIC "-//W3C//DTD SVG 1.1//EN" "http://www.w3.org/Graphics/SVG/1.1/DTD/svg11.dtd"><svg t="1637915893900" class="icon" viewBox="0 0 1024 1024" version="1.1" xmlns="http://www.w3.org/2000/svg" p-id="1743" xmlns:xlink="http://www.w3.org/1999/xlink" width="200" height="200"><defs><style type="text/css"></style></defs><path d="M128 806.4l768 0 0 89.6-768 0 0-89.6ZM732.288 332.6272 555.7888 146.4896C544.8384 135.2832 529.376 128 512 128s-32.832 7.2832-43.6032 18.6048L291.5264 332.4928c-9.2288 10.0224-15.1104 22.9696-15.1104 37.3248 0 30.816 26.3808 55.8016 58.8992 55.8016 0.4544 0 0.896-0.0576 1.344-0.0704l0 0.352L416 425.9008l0 306.7264 192 0L608 425.9008l77.1904 0 0-0.448c1.1648 0.064 2.3104 0.1792 3.5008 0.1792 32.5248 0 58.8992-24.992 58.8992-55.8144C747.5904 355.4624 741.7024 342.5216 732.288 332.6272z" fill="#2c2c2c" p-id="1744"></path></svg>